<?xml version="1.0" standalone="no"?>
<!DOCTYPE svg PUBLIC "-//W3C//DTD SVG 20010904//EN"
 "http://www.w3.org/TR/2001/REC-SVG-20010904/DTD/svg10.dtd">
<svg version="1.0" xmlns="http://www.w3.org/2000/svg"
 width="980.000000pt" height="980.000000pt" viewBox="0 0 980.000000 980.000000"
 preserveAspectRatio="xMidYMid meet">
<metadata>
Created by potrace 1.11, written by Peter Selinger 2001-2013
</metadata>
<g transform="translate(0.000000,980.000000) scale(0.100000,-0.100000)"
fill="#000000" stroke="none">
<path d="M5640 9080 l0 -720 -37 16 c-131 57 -294 78 -429 55 -156 -27 -296
-132 -330 -248 -47 -162 77 -321 296 -378 80 -21 254 -24 330 -6 93 23 169 68
243 143 l67 70 0 894 0 894 -70 0 -70 0 0 -720z"/>
<path d="M8217 8034 c-3 -415 -8 -758 -12 -762 -3 -3 -42 6 -85 22 -222 79
-492 10 -590 -149 -28 -45 -31 -154 -7 -202 19 -35 107 -117 151 -140 105 -54
233 -73 343 -50 97 21 168 58 247 129 l66 60 0 639 0 640 38 -7 c203 -35 386
-119 557 -258 28 -22 102 -87 165 -145 158 -144 159 -145 166 -139 7 8 -53
103 -119 188 -180 232 -398 418 -628 535 -59 30 -115 65 -124 77 -18 27 -20
78 -2 101 11 16 16 17 55 3 68 -24 171 -82 242 -135 148 -111 342 -337 475
-554 32 -53 65 -99 72 -101 10 -4 13 10 13 58 0 126 -87 355 -184 483 -131
173 -371 339 -591 409 -58 19 -215 54 -241 54 0 0 -3 -340 -7 -756z"/>
<path d="M1490 7590 c0 -385 -3 -700 -8 -700 -4 0 -41 14 -82 32 -64 27 -91
32 -181 36 -234 10 -417 -75 -486 -225 -45 -98 -21 -195 72 -289 94 -95 219
-130 428 -122 104 4 121 7 178 36 119 58 159 89 180 138 34 76 41 256 35 849
l-6 540 32 -40 c187 -228 342 -339 543 -390 76 -20 355 -27 428 -12 l37 8 0
245 c0 229 -1 245 -17 240 -115 -32 -395 -39 -539 -13 -157 29 -315 135 -422
285 -50 70 -70 82 -143 82 l-49 0 0 -700z"/>
<path d="M4949 6415 c-405 -64 -774 -257 -1070 -561 -207 -214 -349 -442 -445
-717 -72 -208 -76 -233 -81 -553 -6 -371 1 -447 66 -644 61 -183 126 -321 223
-466 92 -138 219 -303 235 -304 13 0 368 239 518 350 552 407 1145 966 1513
1427 156 195 545 759 631 914 l31 55 -83 69 c-234 194 -548 347 -832 404 -206
41 -531 53 -706 26z"/>
<path d="M6784 5463 c-309 -496 -642 -917 -1064 -1347 -415 -423 -811 -756
-1303 -1095 -97 -68 -180 -127 -182 -132 -8 -11 225 -127 348 -173 346 -129
776 -153 1136 -62 660 167 1208 696 1376 1328 46 173 57 255 62 470 7 285 -22
498 -99 717 -49 141 -179 401 -200 401 -3 0 -37 -48 -74 -107z"/>
<path d="M968 4196 c-2 -398 -6 -728 -10 -732 -4 -4 -34 5 -65 19 -100 45
-293 61 -429 36 -130 -24 -278 -137 -305 -232 -30 -104 -11 -180 66 -265 91
-101 227 -152 402 -152 56 0 126 5 155 11 82 18 172 63 227 114 93 87 86 -1
89 1023 l3 902 -65 0 -65 0 -3 -724z"/>
<path d="M7326 3523 c-127 -256 -236 -411 -426 -607 -237 -245 -514 -429 -833
-556 -59 -23 -107 -46 -105 -51 2 -4 431 -329 953 -721 1256 -943 2038 -1518
2125 -1563 52 -27 194 -32 276 -10 129 35 239 131 302 263 34 70 37 84 36 157
-1 87 -24 189 -51 233 -52 82 -884 1235 -1582 2192 -517 710 -599 820 -609
820 -4 0 -43 -71 -86 -157z"/>
</g>
</svg>
